<svg xmlns="http://www.w3.org/2000/svg" xmlns:xlink="http://www.w3.org/1999/xlink" width="518" zoomAndPan="magnify" viewBox="0 0 388.5 89.999999" height="120" preserveAspectRatio="xMidYMid meet" version="1.0"><defs><g/><clipPath id="9c07427873"><path d="M 295 16 L 346.785156 16 L 346.785156 89.941406 L 295 89.941406 Z M 295 16 " clip-rule="nonzero"/></clipPath><clipPath id="cf273e64c6"><path d="M 264.390625 0.0585938 L 316 0.0585938 L 316 74 L 264.390625 74 Z M 264.390625 0.0585938 " clip-rule="nonzero"/></clipPath></defs><g clip-path="url(#9c07427873)"><path fill="#000000" d="M 346.742188 89.59375 C 344.371094 85.808594 342 82.023438 339.625 78.238281 L 336.0625 72.574219 L 332.488281 66.910156 L 325.324219 55.589844 L 318.605469 44.984375 L 327.257812 32.25 L 329.535156 28.902344 C 330.296875 27.789062 331.054688 26.671875 331.820312 25.558594 L 336.421875 18.898438 L 338.285156 16.203125 L 313.746094 16.039062 L 313.226562 16.964844 C 312.472656 18.320312 311.730469 19.6875 310.984375 21.046875 L 310.429688 22.070312 L 309.878906 23.097656 L 308.769531 25.148438 L 306.585938 29.265625 L 305.46875 31.386719 C 305.042969 30.738281 304.617188 30.09375 304.191406 29.449219 L 302.886719 27.492188 L 301.570312 25.542969 L 300.253906 23.597656 L 298.917969 21.664062 C 298.023438 20.371094 297.113281 19.089844 296.195312 17.820312 C 296.128906 17.710938 296.042969 17.6875 295.933594 17.75 C 295.824219 17.816406 295.800781 17.902344 295.863281 18.011719 C 296.53125 19.433594 297.21875 20.84375 297.925781 22.246094 L 298.980469 24.347656 L 300.050781 26.445312 L 301.132812 28.535156 L 302.21875 30.617188 C 302.953125 32.003906 303.683594 33.390625 304.425781 34.769531 L 305.5 36.761719 L 306.773438 34.753906 C 307.609375 33.441406 308.421875 32.121094 309.246094 30.804688 L 311.691406 26.84375 L 312.90625 24.855469 L 313.511719 23.863281 L 314.113281 22.875 C 314.722656 21.863281 315.332031 20.859375 315.933594 19.847656 C 316.414062 19.847656 331.085938 19.792969 331.667969 19.78125 L 329.148438 23.792969 C 328.429688 24.9375 327.699219 26.070312 326.976562 27.210938 L 324.800781 30.625 L 316.082031 44.273438 L 315.628906 44.984375 L 316.082031 45.644531 L 323.640625 56.703125 L 331.214844 67.75 L 335.003906 73.273438 L 338.804688 78.785156 C 341.335938 82.46875 343.878906 86.140625 346.425781 89.804688 C 346.496094 89.910156 346.582031 89.925781 346.6875 89.855469 C 346.789062 89.789062 346.808594 89.703125 346.742188 89.597656 Z M 346.742188 89.59375 " fill-opacity="1" fill-rule="nonzero"/></g><g clip-path="url(#cf273e64c6)"><path fill="#000000" d="M 313.265625 67.671875 L 312.210938 65.570312 L 311.140625 63.472656 L 310.0625 61.382812 L 308.972656 59.300781 C 308.238281 57.914062 307.507812 56.527344 306.765625 55.148438 L 305.691406 53.15625 L 304.417969 55.167969 C 303.582031 56.476562 302.769531 57.796875 301.945312 59.113281 L 299.496094 63.074219 L 298.285156 65.066406 L 297.679688 66.054688 L 297.078125 67.046875 C 296.472656 68.054688 295.867188 69.0625 295.265625 70.070312 C 294.785156 70.070312 280.117188 70.128906 279.53125 70.140625 L 282.046875 66.128906 C 282.761719 64.984375 283.492188 63.847656 284.214844 62.710938 L 286.394531 59.292969 L 295.113281 45.644531 L 295.566406 44.9375 L 295.113281 44.273438 L 287.550781 33.238281 L 279.976562 22.214844 L 276.1875 16.703125 L 272.386719 11.203125 C 269.855469 7.53125 267.316406 3.867188 264.765625 0.207031 C 264.695312 0.109375 264.613281 0.09375 264.511719 0.15625 C 264.40625 0.222656 264.386719 0.308594 264.453125 0.414062 C 266.824219 4.195312 269.195312 7.96875 271.566406 11.746094 L 275.128906 17.40625 L 278.703125 23.054688 L 285.863281 34.355469 L 292.585938 44.9375 L 283.9375 57.671875 L 281.660156 61.019531 C 280.898438 62.128906 280.144531 63.25 279.375 64.359375 L 274.773438 71.023438 L 272.914062 73.71875 L 297.453125 73.882812 L 297.972656 72.949219 C 298.726562 71.589844 299.46875 70.226562 300.214844 68.863281 L 300.773438 67.839844 L 301.324219 66.816406 L 302.433594 64.765625 L 304.609375 60.65625 L 305.722656 58.535156 L 307 60.46875 L 308.304688 62.425781 L 309.621094 64.375 L 310.9375 66.320312 L 312.273438 68.257812 C 313.167969 69.546875 314.074219 70.828125 315 72.101562 C 315.066406 72.191406 315.148438 72.207031 315.246094 72.148438 C 315.34375 72.09375 315.367188 72.011719 315.320312 71.910156 C 314.65625 70.492188 313.972656 69.082031 313.265625 67.671875 Z M 313.265625 67.671875 " fill-opacity="1" fill-rule="nonzero"/></g><g fill="#705cf7" fill-opacity="1"><g transform="translate(37.188036, 60.951739)"><g><path d="M 35.609375 -8.625 L 35.609375 0 L 3.9375 0 L 3.9375 -39.4375 L 34.875 -39.4375 L 34.875 -30.8125 L 14.984375 -30.8125 L 14.984375 -24.171875 L 32.515625 -24.171875 L 32.515625 -15.828125 L 14.984375 -15.828125 L 14.984375 -8.625 Z M 35.609375 -8.625 "/></g></g></g><g fill="#705cf7" fill-opacity="1"><g transform="translate(84.062563, 60.951739)"><g><path d="M 35.609375 -30.53125 L 22.984375 0 L 11.9375 0 L -0.625 -30.53125 L 10.375 -30.53125 L 17.6875 -11.890625 L 25.40625 -30.53125 Z M 35.609375 -30.53125 "/></g></g></g><g fill="#705cf7" fill-opacity="1"><g transform="translate(128.007662, 60.951739)"><g><path d="M 34.65625 -15.21875 C 34.65625 -15.132812 34.597656 -14.25 34.484375 -12.5625 L 12.28125 -12.5625 C 12.726562 -10.988281 13.597656 -9.773438 14.890625 -8.921875 C 16.191406 -8.078125 17.820312 -7.65625 19.78125 -7.65625 C 21.238281 -7.65625 22.503906 -7.863281 23.578125 -8.28125 C 24.648438 -8.695312 25.726562 -9.375 26.8125 -10.3125 L 32.453125 -4.453125 C 29.484375 -1.148438 25.144531 0.5 19.4375 0.5 C 15.875 0.5 12.738281 -0.171875 10.03125 -1.515625 C 7.320312 -2.867188 5.222656 -4.75 3.734375 -7.15625 C 2.253906 -9.5625 1.515625 -12.285156 1.515625 -15.328125 C 1.515625 -18.328125 2.238281 -21.019531 3.6875 -23.40625 C 5.132812 -25.789062 7.132812 -27.660156 9.6875 -29.015625 C 12.238281 -30.367188 15.113281 -31.046875 18.3125 -31.046875 C 21.351562 -31.046875 24.113281 -30.414062 26.59375 -29.15625 C 29.070312 -27.894531 31.035156 -26.070312 32.484375 -23.6875 C 33.929688 -21.300781 34.65625 -18.476562 34.65625 -15.21875 Z M 18.375 -23.4375 C 16.71875 -23.4375 15.332031 -22.96875 14.21875 -22.03125 C 13.113281 -21.09375 12.410156 -19.816406 12.109375 -18.203125 L 24.625 -18.203125 C 24.320312 -19.816406 23.613281 -21.09375 22.5 -22.03125 C 21.394531 -22.96875 20.019531 -23.4375 18.375 -23.4375 Z M 18.375 -23.4375 "/></g></g></g><g fill="#705cf7" fill-opacity="1"><g transform="translate(173.192126, 60.951739)"><g><path d="M 23.328125 -31.046875 C 27.117188 -31.046875 30.171875 -29.914062 32.484375 -27.65625 C 34.796875 -25.40625 35.953125 -22.007812 35.953125 -17.46875 L 35.953125 0 L 25.234375 0 L 25.234375 -15.71875 C 25.234375 -19.882812 23.566406 -21.96875 20.234375 -21.96875 C 18.390625 -21.96875 16.910156 -21.367188 15.796875 -20.171875 C 14.691406 -18.972656 14.140625 -17.171875 14.140625 -14.765625 L 14.140625 0 L 3.4375 0 L 3.4375 -30.53125 L 13.640625 -30.53125 L 13.640625 -27.21875 C 14.835938 -28.457031 16.257812 -29.40625 17.90625 -30.0625 C 19.5625 -30.71875 21.367188 -31.046875 23.328125 -31.046875 Z M 23.328125 -31.046875 "/></g></g></g><g fill="#705cf7" fill-opacity="1"><g transform="translate(221.418703, 60.951739)"><g><path d="M 24.515625 -1.234375 C 23.609375 -0.671875 22.503906 -0.242188 21.203125 0.046875 C 19.910156 0.347656 18.535156 0.5 17.078125 0.5 C 13.085938 0.5 10.019531 -0.472656 7.875 -2.421875 C 5.738281 -4.378906 4.671875 -7.289062 4.671875 -11.15625 L 4.671875 -21.40625 L 0.21875 -21.40625 L 0.21875 -29.40625 L 4.671875 -29.40625 L 4.671875 -37.359375 L 15.375 -37.359375 L 15.375 -29.40625 L 22.375 -29.40625 L 22.375 -21.40625 L 15.375 -21.40625 L 15.375 -11.265625 C 15.375 -10.179688 15.664062 -9.328125 16.25 -8.703125 C 16.832031 -8.085938 17.613281 -7.78125 18.59375 -7.78125 C 19.832031 -7.78125 20.921875 -8.097656 21.859375 -8.734375 Z M 24.515625 -1.234375 "/></g></g></g></svg>